<?xml version="1.0" encoding="iso-8859-1"?>
<!-- Uploaded to: SVG Repo, www.svgrepo.com, Generator: SVG Repo Mixer Tools -->
<svg fill="#000000" height="800px" width="800px" version="1.1" id="Layer_1" xmlns="http://www.w3.org/2000/svg" xmlns:xlink="http://www.w3.org/1999/xlink" 
	 viewBox="0 0 300 300" xml:space="preserve">
<path id="XMLID_505_" d="M195,45c-16.542,0-30-13.458-30-30c0-8.284-6.716-15-15-15s-15,6.716-15,15v182.399
	c-8.832-4.696-19.075-7.399-30-7.399c-33.084,0-60,24.673-60,55s26.916,55,60,55s60-24.673,60-55V66.928
	C173.833,72.051,184.075,75,195,75c16.542,0,30,13.458,30,30c0,8.284,6.716,15,15,15s15-6.716,15-15C255,71.916,228.084,45,195,45z
	 M105,270c-16.542,0-30-11.215-30-25c0-13.785,13.458-25,30-25s30,11.215,30,25C135,258.785,121.542,270,105,270z"/>
</svg>